<svg width="124" height="27" viewBox="0 0 124 27" fill="none" xmlns="http://www.w3.org/2000/svg">
<g clip-path="url(#clip0_187_309)">
<path fill-rule="evenodd" clip-rule="evenodd" d="M7.83249 0.461914H26.5147C26.9605 0.461914 27.3723 0.697187 27.5946 1.07888L33.0375 10.4239C33.3198 10.9085 33.2359 11.5202 32.8333 11.9132L17.8516 26.5369C17.3663 27.0106 16.5856 27.0106 16.1002 26.5369L1.13878 11.9329C0.72682 11.5308 0.649678 10.9013 0.952617 10.4137L6.77065 1.0489C6.99723 0.684184 7.39932 0.461914 7.83249 0.461914ZM24.1025 4.63413V7.25619H18.7807V9.07416C22.5184 9.26843 25.3226 10.0663 25.3435 11.0227L25.3433 13.0165C25.3225 13.9729 22.5184 14.7708 18.7807 14.9651V19.4265H15.2469V14.9651C11.5093 14.7708 8.70501 13.9729 8.68421 13.0165L8.68433 11.0227C8.70513 10.0663 11.5093 9.26843 15.2469 9.07416V7.25619H9.92513V4.63413H24.1025ZM17.0138 13.5953C21.0026 13.5953 24.3366 12.9206 25.1525 12.0196C24.4606 11.2555 21.9579 10.6542 18.7807 10.4891V12.3925C18.2112 12.4221 17.6201 12.4377 17.0138 12.4377C16.4076 12.4377 15.8164 12.4221 15.2469 12.3925V10.4891C12.0697 10.6542 9.56709 11.2555 8.8752 12.0196C9.69112 12.9206 13.0251 13.5953 17.0138 13.5953Z" fill="#009393"/>
<path d="M40.3316 5.53258L44.6502 5.05273V9.19141H48.399V12.7903H44.6202V18.3685C44.6202 19.6881 45.18 20.3479 46.2997 20.3479C47.0194 20.3479 47.6192 20.2279 48.0991 19.988L49.0888 23.5868C48.1091 23.9667 47.0694 24.1867 45.9698 24.2466C44.2303 24.3266 42.8508 23.9167 41.8311 23.017C40.8314 22.0973 40.3316 20.5478 40.3316 18.3685V12.7903H37.6924V9.19141H40.3316V5.53258Z" fill="#009393"/>
<path d="M64.562 17.919H53.6755C53.7954 18.6787 54.2053 19.3085 54.9051 19.8083C55.6049 20.2882 56.5346 20.5281 57.6942 20.5281C59.3537 20.5281 60.6332 20.1382 61.533 19.3585L63.9622 22.0576C62.4827 23.5172 60.3633 24.2469 57.6042 24.2469C54.9651 24.2469 52.9157 23.5372 51.4562 22.1176C50.0166 20.6981 49.2969 18.7787 49.2969 16.3594C49.2969 14.0802 50.0066 12.2408 51.4262 10.8412C52.8457 9.42169 54.7551 8.71191 57.1544 8.71191C59.7735 8.71191 61.7729 9.51166 63.1524 11.1111C64.552 12.7106 65.0219 14.9799 64.562 17.919ZM53.6755 14.77H60.6932C60.6532 14.0102 60.2934 13.4304 59.6136 13.0305C58.9338 12.6106 58.1141 12.4007 57.1544 12.4007C56.2946 12.4007 55.5549 12.6106 54.9351 13.0305C54.3153 13.4504 53.8954 14.0302 53.6755 14.77Z" fill="#009393"/>
<path d="M68.1625 5.53258L72.4812 5.05273V9.19141H76.23V12.7903H72.4512V18.3685C72.4512 19.6881 73.011 20.3479 74.1306 20.3479C74.8504 20.3479 75.4502 20.2279 75.9301 19.988L76.9198 23.5868C75.9401 23.9667 74.9004 24.1867 73.8008 24.2466C72.0613 24.3266 70.6817 23.9167 69.6621 23.017C68.6624 22.0973 68.1625 20.5478 68.1625 18.3685V12.7903H65.5234V9.19141H68.1625V5.53258Z" fill="#009393"/>
<path d="M78.5391 2.92383H82.8877V10.9313C83.9474 9.55172 85.4469 8.86194 87.3863 8.86194C91.325 8.86194 93.2944 11.2312 93.2944 15.9697V23.9171H88.9758V15.9997C88.9758 14.98 88.7159 14.1902 88.196 13.6304C87.6962 13.0706 87.0164 12.7907 86.1567 12.7907C85.217 12.7907 84.4272 13.1106 83.7874 13.7504C83.1676 14.3902 82.8577 15.2799 82.8577 16.4195V23.9171H78.5391V2.92383Z" fill="#009393"/>
<path d="M110.231 17.919H99.3444C99.4644 18.6787 99.8743 19.3085 100.574 19.8083C101.274 20.2882 102.204 20.5281 103.364 20.5281C105.023 20.5281 106.303 20.1382 107.202 19.3585L109.632 22.0576C108.152 23.5172 106.033 24.2469 103.274 24.2469C100.634 24.2469 98.5847 23.5372 97.1251 22.1176C95.6856 20.6981 94.9658 18.7787 94.9658 16.3594C94.9658 14.0802 95.6756 12.2408 97.0952 10.8412C98.5147 9.42169 100.424 8.71191 102.824 8.71191C105.443 8.71191 107.442 9.51166 108.822 11.1111C110.221 12.7106 110.691 14.9799 110.231 17.919ZM99.3444 14.77H106.363C106.323 14.0102 105.963 13.4304 105.283 13.0305C104.603 12.6106 103.783 12.4007 102.824 12.4007C101.964 12.4007 101.224 12.6106 100.604 13.0305C99.9842 13.4504 99.5644 14.0302 99.3444 14.77Z" fill="#009393"/>
<path d="M112.022 9.13136H116.041L116.371 10.7508C117.311 9.43127 118.63 8.77148 120.33 8.77148C121.729 8.77148 122.939 9.22133 123.959 10.121L122.159 13.5399C121.459 13.0401 120.67 12.7902 119.79 12.7902C118.81 12.7902 117.991 13.1001 117.331 13.7199C116.671 14.3197 116.341 15.1494 116.341 16.2091V23.9166H112.022V9.13136Z" fill="#009393"/>
</g>
<defs>
<clipPath id="clip0_187_309">
<rect width="124" height="27" fill="white"/>
</clipPath>
</defs>
</svg>
