<svg width="846" height="1064" viewBox="0 0 846 1064" fill="none" xmlns="http://www.w3.org/2000/svg">
<g opacity="0.03">
<path fill-rule="evenodd" clip-rule="evenodd" d="M991.491 276.09L560.587 105.328L432.808 208.784L581.587 267.743L439.777 380.324L588.846 439.277L730.556 326.778L862.11 378.911L991.491 276.09Z" fill="white"/>
<path fill-rule="evenodd" clip-rule="evenodd" d="M581.489 214.301L286.306 97.3232L242.024 133.18L536.647 249.935L581.489 214.301Z" fill="white"/>
<path fill-rule="evenodd" clip-rule="evenodd" d="M215.686 202.673L282.155 664.004L434.597 723.079L411.646 563.797L578.906 630.492L555.807 470.959L388.668 404.312L368.377 263.467L215.686 202.673Z" fill="white"/>
<path fill-rule="evenodd" clip-rule="evenodd" d="M365.659 590.838L411.195 906.862L464.026 927.337L418.58 611.908L365.659 590.838Z" fill="white"/>
<path fill-rule="evenodd" clip-rule="evenodd" d="M541.715 917.908L906.149 627.341L881.486 464.807L755.658 565.133L730.211 385.859L604.241 486.436L629.668 665.584L518.405 754.293L541.715 917.908Z" fill="white"/>
<path fill-rule="evenodd" clip-rule="evenodd" d="M801.742 642.276L1051.39 443.232L1042.84 386.901L793.664 585.571L801.742 642.276Z" fill="white"/>
</g>
</svg>
