<svg width="480" height="361" viewBox="0 0 480 361" fill="none" xmlns="http://www.w3.org/2000/svg">
<g opacity="0.1">
<mask id="mask0_187_42" style="mask-type:alpha" maskUnits="userSpaceOnUse" x="0" y="0" width="480" height="361">
<rect x="479.5" y="0.500021" width="360" height="479" transform="rotate(90 479.5 0.500021)" fill="url(#paint0_linear_187_42)" stroke="#D4CAFF"/>
</mask>
<g mask="url(#mask0_187_42)">
<path d="M362.044 328.202C362.044 397.635 305.838 453.92 236.505 453.92C167.172 453.92 110.965 397.635 110.965 328.202C110.965 258.769 167.172 202.484 236.505 202.484C305.838 202.485 362.044 258.77 362.044 328.202Z" stroke="#D4CAFF"/>
<path d="M390.237 318.238C390.237 395.926 327.348 458.902 249.772 458.902C172.196 458.902 109.307 395.926 109.307 318.238C109.307 240.551 172.196 177.573 249.772 177.573C327.348 177.573 390.237 240.551 390.237 318.238Z" stroke="#D4CAFF"/>
<path d="M414.284 309.935C414.284 394.96 345.455 463.885 260.552 463.885C175.648 463.885 106.82 394.96 106.819 309.935C106.819 224.909 175.648 155.983 260.552 155.983C345.455 155.983 414.284 224.909 414.284 309.935Z" stroke="#D4CAFF"/>
<path d="M441.648 301.63C441.648 393.076 367.621 467.206 276.307 467.206C184.992 467.206 110.966 393.075 110.966 301.63C110.966 210.184 184.992 136.054 276.307 136.054C367.621 136.054 441.648 210.184 441.648 301.63Z" stroke="#D4CAFF"/>
<path d="M468.183 293.741C468.183 391.378 389.144 470.527 291.646 470.527C194.149 470.527 115.111 391.378 115.111 293.741C115.111 196.104 194.149 116.955 291.647 116.955C389.144 116.955 468.183 196.104 468.183 293.741Z" stroke="#D4CAFF"/>
<path d="M503.01 280.456C503.01 387.724 416.175 474.68 309.061 474.68C201.946 474.68 115.112 387.723 115.111 280.456C115.111 173.188 201.946 86.2316 309.061 86.2315C416.175 86.2315 503.01 173.188 503.01 280.456Z" stroke="#D4CAFF"/>
</g>
</g>
<defs>
<linearGradient id="paint0_linear_187_42" x1="736.035" y1="13.467" x2="487.704" y2="484.066" gradientUnits="userSpaceOnUse">
<stop stop-color="#747DEF"/>
<stop offset="1" stop-color="#5E3BE1"/>
</linearGradient>
</defs>
</svg>
