<svg width="147" height="139" viewBox="0 0 147 139" fill="none" xmlns="http://www.w3.org/2000/svg">
<g clip-path="url(#clip0_79_480)">
<path fill-rule="evenodd" clip-rule="evenodd" d="M48.3235 117.774V89.4319H53.5112V117.774H48.3235ZM89.6066 117.774V89.4319H94.7943V117.774H89.6066ZM124.323 94.4822H115.465V117.774H110.277V94.4822H101.991L99.0519 89.4319H127.466L134.311 102.136L141.155 89.4319H147L136.924 107.995L136.883 117.774H131.697V108.073L124.322 94.4825L124.323 94.4822ZM15.9654 94.4822V117.774H10.7777V94.4822H2.62539L-0.189453 89.4319H33.5882C36.1925 89.4319 38.7469 90.056 40.6701 91.9243C42.5078 93.7091 43.2425 96.0198 43.2425 98.5668C43.2425 100.686 42.7305 102.711 41.36 104.353C40.1356 105.821 38.5053 106.678 36.7009 107.125L44.9433 117.774H38.5278L30.7475 107.505H27.1374V117.774H21.9495V102.714C25.6737 102.714 29.3973 102.77 33.1213 102.77C34.401 102.77 35.8231 102.541 36.8025 101.636C37.674 100.831 38.0158 99.7865 38.0158 98.6067C38.0158 97.4378 37.6803 96.3953 36.805 95.5997C35.8226 94.7068 34.3956 94.4827 33.1213 94.4827C27.4026 94.4827 21.6842 94.4827 15.9656 94.4827L15.9654 94.4822ZM66.6143 98.2123L66.5511 117.774H61.3631V94.482V94.4223L58.4564 89.4316H67.1484L79.7199 109.049L79.7629 89.4316H84.9509V117.774H79.1271L66.6141 98.212L66.6143 98.2123Z" fill="#FEFEFE"/>
</g>
<path fill-rule="evenodd" clip-rule="evenodd" d="M98.7469 0H59.9376L53.1826 11.9947H66.5823L59.0166 25.1324L72.4387 25.123L79.9992 11.9947H91.8475L98.7469 0Z" fill="#00A3A9"/>
<path fill-rule="evenodd" clip-rule="evenodd" d="M64.9264 7.83789H38.3408L36 11.995H62.5351L64.9264 7.83789Z" fill="#00A3A9"/>
<path fill-rule="evenodd" clip-rule="evenodd" d="M36.0928 18.2168L55.4975 52.0766L69.186 51.9726L62.486 40.282L77.563 40.3141L70.8438 28.6085L55.7777 28.5764L49.8537 18.2389L36.0928 18.2168Z" fill="#049393"/>
<path fill-rule="evenodd" clip-rule="evenodd" d="M59.7402 43.8057L73.0331 67.0004L77.7772 66.9646L64.5095 43.8133L59.7402 43.8057Z" fill="#049393"/>
<path fill-rule="evenodd" clip-rule="evenodd" d="M83.5344 63.8339L102.939 29.9744L96.0055 18.0834L89.3058 29.7743L81.7948 16.6045L75.0918 28.3192L82.5972 41.4798L76.6729 51.8171L83.5344 63.8339Z" fill="#33B7BC"/>
<path fill-rule="evenodd" clip-rule="evenodd" d="M93.7071 30.4075L107 7.21302L104.597 3.0918L91.3291 26.2428L93.7071 30.4075Z" fill="#33B7BC"/>
<defs>
<clipPath id="clip0_79_480">
<rect width="147" height="60" fill="white" transform="translate(0 79)"/>
</clipPath>
</defs>
</svg>
