<svg width="30" height="30" viewBox="0 0 30 30" fill="none" xmlns="http://www.w3.org/2000/svg">
<path fill-rule="evenodd" clip-rule="evenodd" d="M9.76107 18.1052L3.9366 15.5911C3.3249 15.3265 2.93606 14.7159 2.9558 14.0497C2.97669 13.3834 3.40035 12.7973 4.02714 12.5709C8.27884 11.0318 21.1384 6.37502 24.8643 5.02511C25.4284 4.82199 26.0586 4.94502 26.5044 5.34547C26.9501 5.74708 27.1381 6.36109 26.9953 6.94377C26.1666 10.2959 23.6038 20.6704 22.8214 23.8368C22.6856 24.3882 22.2713 24.8281 21.7304 24.9975C21.1883 25.1681 20.5975 25.0428 20.1715 24.6679L16.2193 21.1962L13.126 24.1618C12.6814 24.5878 12.0361 24.7259 11.4557 24.5205C10.8765 24.3139 10.4633 23.7985 10.3879 23.188L9.76107 18.1052ZM20.9759 22.5948L24.7575 7.28618L5.84019 14.1367L10.8336 16.2933C11.3629 16.522 11.732 17.0141 11.8028 17.5864L12.3483 22.0133L14.6337 19.8231L14.4318 19.649C14.0824 19.3506 13.877 18.9189 13.8642 18.4604C13.8503 18.0019 14.0325 17.5597 14.3633 17.2416C15.6041 16.0519 18.9144 12.8797 18.9144 12.8797C19.3311 12.4804 19.9928 12.4943 20.392 12.911C20.7902 13.3265 20.7762 13.9881 20.3607 14.3874L16.1798 18.3954L16.8681 18.985L20.9759 22.5948Z" fill="white"/>
</svg>
