<svg width="22" height="22" viewBox="0 0 22 22" fill="none" xmlns="http://www.w3.org/2000/svg">
<g clip-path="url(#clip0_187_337)">
<path d="M15.125 0H6.875C5.05164 0 3.30295 0.724328 2.01364 2.01364C0.724328 3.30295 0 5.05164 0 6.875L0 15.125C0 16.9484 0.724328 18.697 2.01364 19.9864C3.30295 21.2757 5.05164 22 6.875 22H15.125C16.9484 22 18.697 21.2757 19.9864 19.9864C21.2757 18.697 22 16.9484 22 15.125V6.875C22 5.05164 21.2757 3.30295 19.9864 2.01364C18.697 0.724328 16.9484 0 15.125 0V0ZM19.9375 15.125C19.9375 17.7787 17.7787 19.9375 15.125 19.9375H6.875C4.22125 19.9375 2.0625 17.7787 2.0625 15.125V6.875C2.0625 4.22125 4.22125 2.0625 6.875 2.0625H15.125C17.7787 2.0625 19.9375 4.22125 19.9375 6.875V15.125Z" fill="#33B7BC"/>
<path d="M11 5.5C9.54131 5.5 8.14236 6.07946 7.11091 7.11091C6.07946 8.14236 5.5 9.54131 5.5 11C5.5 12.4587 6.07946 13.8576 7.11091 14.8891C8.14236 15.9205 9.54131 16.5 11 16.5C12.4587 16.5 13.8576 15.9205 14.8891 14.8891C15.9205 13.8576 16.5 12.4587 16.5 11C16.5 9.54131 15.9205 8.14236 14.8891 7.11091C13.8576 6.07946 12.4587 5.5 11 5.5ZM11 14.4375C10.0887 14.4364 9.21495 14.0739 8.57053 13.4295C7.92611 12.7851 7.56359 11.9113 7.5625 11C7.5625 9.10388 9.10525 7.5625 11 7.5625C12.8948 7.5625 14.4375 9.10388 14.4375 11C14.4375 12.8948 12.8948 14.4375 11 14.4375Z" fill="#33B7BC"/>
<path d="M16.9126 5.82024C17.3173 5.82024 17.6454 5.49212 17.6454 5.08737C17.6454 4.68261 17.3173 4.35449 16.9126 4.35449C16.5078 4.35449 16.1797 4.68261 16.1797 5.08737C16.1797 5.49212 16.5078 5.82024 16.9126 5.82024Z" fill="#33B7BC"/>
</g>
<defs>
<clipPath id="clip0_187_337">
<rect width="22" height="22" fill="white"/>
</clipPath>
</defs>
</svg>
