<svg width="26" height="26" viewBox="0 0 26 26" fill="none" xmlns="http://www.w3.org/2000/svg">
<g clip-path="url(#clip0_187_334)">
<path fill-rule="evenodd" clip-rule="evenodd" d="M13.4062 2.4375C13.2985 2.4375 13.1952 2.4803 13.119 2.55649C13.0428 2.63267 13 2.73601 13 2.84375V17.4688C13 18.59 12.09 19.5 10.9688 19.5C9.8475 19.5 8.9375 18.59 8.9375 17.4688C8.9375 16.3475 9.8475 15.4375 10.9688 15.4375C11.0765 15.4375 11.1798 15.3947 11.256 15.3185C11.3322 15.2423 11.375 15.139 11.375 15.0312V11.7812C11.375 11.6735 11.3322 11.5702 11.256 11.494C11.1798 11.4178 11.0765 11.375 10.9688 11.375C7.605 11.375 4.875 14.1054 4.875 17.4688C4.875 20.8325 7.605 23.5625 10.9688 23.5625C14.3321 23.5625 17.0625 20.8325 17.0625 17.4688V9.95069C17.9559 10.3551 18.9256 10.5637 19.9062 10.5625H20.7188C20.8265 10.5625 20.9298 10.5197 21.006 10.4435C21.0822 10.3673 21.125 10.264 21.125 10.1562V6.90625C21.125 6.79851 21.0822 6.69518 21.006 6.61899C20.9298 6.5428 20.8265 6.5 20.7188 6.5H19.9062C18.3369 6.5 17.0625 5.22559 17.0625 3.65625V2.84375C17.0625 2.73601 17.0197 2.63267 16.9435 2.55649C16.8673 2.4803 16.764 2.4375 16.6562 2.4375H13.4062Z" fill="#33B7BC"/>
</g>
<defs>
<clipPath id="clip0_187_334">
<rect width="26" height="26" fill="white"/>
</clipPath>
</defs>
</svg>
