<svg width="26" height="26" viewBox="0 0 26 26" fill="none" xmlns="http://www.w3.org/2000/svg">
<path d="M25.241 7.90866C25.241 7.69199 24.916 5.95866 24.1577 5.20033C23.1827 4.11699 22.0993 4.00866 21.5577 4.00866H21.4493C18.091 3.79199 13.1077 3.79199 12.9993 3.79199C12.9993 3.79199 7.90768 3.79199 4.54935 4.00866H4.44102C3.89935 4.00866 2.81602 4.11699 1.84102 5.20033C1.08268 6.06699 0.757682 7.80033 0.757682 8.01699C0.757682 8.12533 0.541016 10.0753 0.541016 12.1337V13.9753C0.541016 16.0337 0.757682 17.9837 0.757682 18.092C0.757682 18.3087 1.08268 20.042 1.84102 20.8003C2.70768 21.7753 3.79102 21.8837 4.44102 21.992H4.76602C6.71602 22.2087 12.6743 22.2087 12.891 22.2087C12.891 22.2087 17.9827 22.2087 21.341 21.992H21.4493C21.991 21.8837 23.0743 21.7753 24.0493 20.8003C24.8077 19.9337 25.1327 18.2003 25.1327 17.9837C25.1327 17.8753 25.3493 15.9253 25.3493 13.867V12.0253C25.4577 10.0753 25.241 8.01699 25.241 7.90866ZM17.2243 13.217L10.7243 16.6837C10.616 16.6837 10.616 16.792 10.5077 16.792C10.3993 16.792 10.291 16.792 10.291 16.6837C10.1827 16.5753 10.0743 16.467 10.0743 16.2503V9.20866C10.0743 8.99199 10.1827 8.88366 10.291 8.77533C10.3993 8.66699 10.616 8.66699 10.8327 8.77533L17.3327 12.242C17.5493 12.3503 17.6577 12.4587 17.6577 12.6753C17.6577 12.892 17.441 13.1087 17.2243 13.217Z" fill="#33B7BC"/>
</svg>
